<?xml version="1.0" standalone="no"?><!DOCTYPE svg PUBLIC "-//W3C//DTD SVG 1.1//EN" "http://www.w3.org/Graphics/SVG/1.1/DTD/svg11.dtd"><svg t="1581306126122" class="icon" viewBox="0 0 1024 1024" version="1.1" xmlns="http://www.w3.org/2000/svg" p-id="2148" width="128" height="128" xmlns:xlink="http://www.w3.org/1999/xlink"><defs><style type="text/css"></style></defs><path d="M800 128.992c-24.512 0-48.512 9.504-67.008 28L416 472.992l-7.008 7.008-1.984 10.016-22.016 112-9.984 46.976 47.008-9.984 112-22.016 9.984-1.984 7.008-7.008 316-316.992A94.976 94.976 0 0 0 800 128.96z m0 62.016c7.488 0 14.88 3.84 22.016 10.976 14.24 14.272 14.24 29.76 0 44L512 556.032l-55.008 11.008 11.008-55.008 310.016-310.016c7.104-7.104 14.496-10.976 21.984-10.976zM128 256v640h640V473.984l-64 64V832H192V320h294.016l64-64z" p-id="2149" ></path></svg>